<?xml version="1.0" encoding="UTF-8"?>
<svg width="366px" height="244px" viewBox="0 0 366 244" version="1.1" xmlns="http://www.w3.org/2000/svg" xmlns:xlink="http://www.w3.org/1999/xlink">
    <!-- Generator: Sketch 50.2 (55047) - http://www.bohemiancoding.com/sketch -->
    <title>Logo</title>
    <desc>Created with Sketch.</desc>
    <defs></defs>
    <g id="Page-4" stroke="none" stroke-width="1" fill="none" fill-rule="evenodd">
        <g id="Logo-White" transform="translate(-226.000000, -158.000000)" fill="#000000">
            <g id="Logo" transform="translate(228.000000, 175.000000)">
                <path d="M203.5062,99.8942 C203.6462,99.9072 203.7822,99.9612 203.9152,100.0592 C204.0482,100.1572 204.1382,100.2762 204.1832,100.4182 C204.3042,100.7932 204.2192,101.3052 203.9292,101.9532 C203.6262,102.6532 203.2272,103.1252 202.7312,103.3722 C202.4542,103.5002 202.2042,103.5202 201.9792,103.4292 C201.7992,103.3652 201.6682,103.2292 201.5862,103.0212 C201.5112,102.8402 201.4912,102.5872 201.5272,102.2642 C201.5492,101.9402 201.5962,101.6232 201.6672,101.3122 C201.6992,101.1692 201.7672,101.0462 201.8672,100.9432 C201.8702,100.9302 201.8732,100.9162 201.8762,100.9042 C201.9242,100.6972 202.0412,100.5222 202.2302,100.3792 L202.3012,100.3212 C202.3592,100.2952 202.4362,100.2532 202.5342,100.1952 C202.6312,100.1362 202.7322,100.0812 202.8342,100.0302 C203.0462,99.9522 203.2372,99.9072 203.4092,99.8942 L203.5062,99.8942 Z M201.0752,107.2162 C201.2322,107.4372 201.2772,107.6962 201.2082,107.9942 C201.1852,108.0972 201.1482,108.2012 201.0992,108.3042 C200.6662,109.1722 200.3552,109.9852 200.1622,110.7432 C199.9692,111.5002 199.9162,112.1132 200.0042,112.5792 C200.0932,113.0962 200.3142,113.4762 200.6672,113.7152 C201.0212,113.9552 201.6312,114.0752 202.4982,114.0752 C203.8842,114.0752 205.2852,113.8932 206.7022,113.5302 C208.1192,113.1682 209.4872,112.6502 210.8072,111.9762 C212.1272,111.3032 213.3602,110.5842 214.5062,109.8202 C215.6522,109.0562 216.8282,108.1882 218.0342,107.2162 C218.3052,106.9972 218.5962,106.8862 218.9062,106.8862 C219.2172,106.8862 219.4572,106.9972 219.6282,107.2162 C219.7972,107.4372 219.8472,107.7022 219.7762,108.0132 C219.7052,108.3242 219.5342,108.5892 219.2642,108.8092 C218.2472,109.6252 217.2612,110.3732 216.3022,111.0542 C215.3442,111.7332 214.2702,112.4112 213.0802,113.0832 C211.8892,113.7572 210.7202,114.3242 209.5722,114.7842 C208.4252,115.2442 207.1942,115.6162 205.8792,115.9012 C204.5642,116.1852 203.2662,116.3282 201.9832,116.3282 C200.7912,116.3282 199.8212,116.0652 199.0742,115.5412 C198.3262,115.0172 197.8782,114.3142 197.7302,113.4332 C197.4452,111.9572 197.8882,110.0532 199.0562,107.7222 C199.1572,107.5012 199.3282,107.3072 199.5682,107.1392 C199.8082,106.9702 200.0452,106.8802 200.2812,106.8682 L200.3292,106.8682 L200.3972,106.8682 C200.6932,106.8802 200.9182,106.9972 201.0752,107.2162 Z" id="Fill-91"></path>
                <path d="M224.2377,105.6628 C224.6107,106.7508 225.0217,107.6438 225.4697,108.3438 C225.8317,108.9138 226.2437,109.3798 226.7047,109.7418 C227.1657,110.1048 227.6167,110.2858 228.0557,110.2858 C228.6907,110.2858 229.3087,110.2058 229.9087,110.0438 C230.5087,109.8818 231.0957,109.6358 231.6707,109.3058 C232.2447,108.9758 232.7367,108.6638 233.1467,108.3728 C233.5567,108.0818 234.0417,107.7018 234.6017,107.2358 C234.8557,107.0288 235.1097,106.9128 235.3607,106.8868 C235.6127,106.8608 235.8197,106.9088 235.9787,107.0318 C236.1377,107.1548 236.2607,107.3108 236.3477,107.4988 C236.4347,107.6868 236.4317,107.9068 236.3427,108.1598 C236.2527,108.4108 236.0887,108.6348 235.8487,108.8298 C235.3587,109.2178 234.9297,109.5518 234.5617,109.8298 C234.1937,110.1088 233.7117,110.4328 233.1157,110.8018 C232.5197,111.1698 231.9557,111.4718 231.4237,111.7038 C230.8907,111.9378 230.2787,112.1358 229.5877,112.2978 C228.8967,112.4598 228.2147,112.5398 227.5407,112.5398 C225.9487,112.5398 224.5767,111.6268 223.4267,109.8008 C223.2937,109.5938 223.1727,109.4438 223.0637,109.3538 C222.9547,109.2638 222.8397,109.2158 222.7177,109.2078 C222.5957,109.2018 222.4467,109.2728 222.2707,109.4218 C222.0937,109.5708 221.9027,109.7588 221.6947,109.9848 C221.4877,110.2118 221.2127,110.5388 220.8687,110.9668 C220.5287,111.4328 219.9727,112.1928 219.2007,113.2488 C218.4267,114.3048 217.8357,115.1098 217.4237,115.6678 C217.1587,116.0298 216.8397,116.2378 216.4657,116.2888 C216.0917,116.3408 215.7927,116.2438 215.5697,115.9978 C215.3477,115.7518 215.3087,115.4278 215.4527,115.0258 L217.8747,107.9158 C217.9257,107.7488 218.0027,107.5998 218.1037,107.4698 C218.2037,107.3408 218.3127,107.2358 218.4267,107.1588 C218.5417,107.0808 218.6627,107.0188 218.7897,106.9748 C218.9177,106.9298 219.0417,106.9058 219.1647,106.9058 C219.2877,106.9058 219.4077,106.9188 219.5247,106.9448 C219.6417,106.9708 219.7437,107.0218 219.8297,107.0998 C219.9157,107.1788 219.9857,107.2658 220.0417,107.3628 C220.0967,107.4598 220.1297,107.5768 220.1357,107.7128 C220.1437,107.8488 220.1157,108.0008 220.0507,108.1688 C220.0307,108.2598 220.0267,108.3048 220.0397,108.3048 L220.2987,107.9358 C220.3197,107.8968 220.3337,107.8708 220.3367,107.8578 C221.4287,106.0188 222.4297,105.0998 223.3377,105.0998 L223.4147,105.0998 C223.8297,105.0998 224.1027,105.2878 224.2377,105.6628" id="Fill-93"></path>
                <path d="M237.6263,107.1295 C237.3973,107.2525 237.1523,107.4305 236.8923,107.6635 C236.2433,108.2335 235.6653,108.9195 235.1583,109.7235 C234.9993,110.0215 234.8913,110.2675 234.8343,110.4605 C234.5543,111.4585 235.5033,111.2445 237.6813,109.8195 C237.8093,109.7165 238.1473,109.3995 238.6953,108.8685 C238.5023,108.6345 238.4493,108.3575 238.5363,108.0325 C238.6313,107.6175 238.6433,107.3145 238.5703,107.1195 C238.5433,107.0675 238.5223,107.0315 238.5073,107.0135 C238.4923,106.9925 238.4543,106.9745 238.3953,106.9545 C238.3343,106.9355 238.2393,106.9255 238.1093,106.9255 C238.0173,106.9395 237.8553,107.0065 237.6263,107.1295 Z M238.5863,104.6715 C239.1173,104.6715 239.5753,104.7915 239.9613,105.0305 C240.3463,105.2715 240.6123,105.5785 240.7613,105.9535 C240.7943,106.0315 240.8033,106.1385 240.7843,106.2745 C240.7663,106.4095 240.7643,106.5045 240.7783,106.5565 C241.2733,106.2585 241.7013,106.2585 242.0613,106.5565 C242.4193,106.8545 242.4773,107.2555 242.2313,107.7615 C241.3743,109.4705 241.2013,110.7655 241.7123,111.6465 C241.8943,111.9835 242.1723,112.2375 242.5473,112.4125 C242.9213,112.5885 243.3223,112.6755 243.7493,112.6755 C244.3843,112.6755 245.0123,112.6205 245.6333,112.5105 C246.2533,112.4005 246.8143,112.2715 247.3143,112.1225 C247.8143,111.9735 248.3573,111.7505 248.9443,111.4515 C249.5303,111.1535 250.0193,110.8885 250.4093,110.6555 C250.7983,110.4225 251.2813,110.0955 251.8563,109.6745 C252.4323,109.2535 252.8753,108.9195 253.1843,108.6735 C253.4923,108.4285 253.9413,108.0655 254.5293,107.5865 C254.7213,107.4305 254.8633,107.3145 254.9593,107.2355 C255.2013,107.0285 255.4523,106.9085 255.7123,106.8765 C255.9723,106.8445 256.1813,106.8935 256.3393,107.0225 C256.4973,107.1525 256.6163,107.3115 256.6963,107.4985 C256.7763,107.6875 256.7743,107.9065 256.6913,108.1595 C256.6073,108.4105 256.4393,108.6345 256.1883,108.8295 C256.1083,108.8945 255.9973,108.9835 255.8543,109.1015 C255.2493,109.5935 254.7803,109.9725 254.4473,110.2365 C254.1153,110.5035 253.6223,110.8715 252.9713,111.3445 C252.3183,111.8175 251.7603,112.1925 251.2953,112.4725 C250.8293,112.7505 250.2463,113.0645 249.5453,113.4135 C248.8433,113.7645 248.1863,114.0355 247.5703,114.2305 C246.9563,114.4245 246.2723,114.5895 245.5153,114.7255 C244.7583,114.8605 244.0023,114.9295 243.2443,114.9295 C242.4863,114.9295 241.7833,114.7735 241.1363,114.4625 C240.4883,114.1515 239.9823,113.6865 239.6193,113.0645 C239.4043,112.7015 239.2283,112.4695 239.0903,112.3645 C238.9523,112.2615 238.7593,112.2545 238.5123,112.3455 C238.2653,112.4365 237.9913,112.5665 237.6943,112.7335 C237.3973,112.9025 236.8973,113.1005 236.1983,113.3265 C235.4993,113.5535 234.7143,113.7315 233.8433,113.8605 C233.1823,113.8605 232.6923,113.6535 232.3723,113.2385 C232.0933,112.8765 231.9893,112.3985 232.0603,111.8015 C232.1473,110.9725 232.5513,109.9945 233.2753,108.8685 C233.9423,107.8185 234.7063,106.9125 235.5673,106.1485 C236.6543,105.1905 237.6473,104.6975 238.5473,104.6715 L238.5863,104.6715 Z" id="Fill-95"></path>
                <path d="M273.1439,87.7419 C273.0479,87.7869 272.9799,87.8229 272.9349,87.8479 C272.8899,87.8749 272.8139,87.9239 272.7069,87.9939 C272.5999,88.0649 272.4769,88.1529 272.3359,88.2569 C271.1929,89.1239 269.8829,90.3149 268.4109,91.8309 C268.3779,91.8569 268.3279,91.9079 268.2579,91.9859 C265.4079,94.8229 264.4039,96.2409 265.2459,96.2409 C265.3739,96.2409 265.5009,96.2239 265.6249,96.1919 C265.7489,96.1599 265.8599,96.1309 265.9569,96.1049 C266.0529,96.0799 266.1619,96.0269 266.2839,95.9489 C266.4049,95.8719 266.5049,95.8129 266.5859,95.7739 C266.6649,95.7349 266.7719,95.6549 266.9039,95.5319 C267.0359,95.4089 267.1329,95.3219 267.1969,95.2689 C267.2599,95.2179 267.3689,95.1109 267.5229,94.9489 C267.6759,94.7879 267.7829,94.6779 267.8409,94.6189 C267.8999,94.5599 268.0229,94.4339 268.2089,94.2399 C268.3959,94.0459 268.5249,93.9089 268.5939,93.8319 C270.3959,91.7859 271.7569,90.1089 272.6779,88.8009 C272.8099,88.6189 273.0339,88.2369 273.3479,87.6539 C273.3069,87.6679 273.2389,87.6959 273.1439,87.7419 M262.5829,99.3879 C262.0249,99.4529 261.4489,99.9319 260.8559,100.8259 C260.4599,101.4219 260.2149,101.8429 260.1199,102.0879 C259.9669,102.5289 260.3029,102.3929 261.1259,101.6799 C261.7559,101.0189 262.2389,100.4669 262.5749,100.0189 C262.9099,99.5729 262.9589,99.3559 262.7239,99.3689 C262.6849,99.3689 262.6379,99.3749 262.5829,99.3879 M275.4759,85.0599 C275.7199,85.1829 275.9009,85.3549 276.0189,85.5759 C276.2049,85.9519 276.2129,86.4249 276.0439,86.9939 C275.8349,87.6799 275.3199,88.6059 274.4959,89.7709 C273.7319,90.8469 272.7039,92.1409 271.4119,93.6569 C271.0399,94.0969 270.7539,94.4369 270.5569,94.6779 C270.3599,94.9169 270.1919,95.1559 270.0519,95.3959 C269.9139,95.6359 269.8549,95.8039 269.8789,95.9009 C269.9019,95.9979 269.9829,96.0819 270.1219,96.1539 C270.2609,96.2239 270.4749,96.2539 270.7629,96.2409 C271.0499,96.2279 271.4269,96.1949 271.8919,96.1429 C271.8919,96.1429 362.8589,96.8599 362.7359,97.2019 C362.6109,97.5459 271.7749,98.7789 271.7899,98.3779 L269.2669,98.5329 C268.9119,98.5589 268.6349,98.5789 268.4379,98.5919 C268.2409,98.6039 268.0199,98.6339 267.7769,98.6789 C267.5329,98.7239 267.3689,98.7509 267.2829,98.7569 C267.1979,98.7629 267.0549,98.8179 266.8569,98.9219 C266.6589,99.0249 266.5369,99.0899 266.4919,99.1159 C266.4469,99.1419 266.3219,99.2489 266.1169,99.4359 C265.9129,99.6239 265.7829,99.7539 265.7279,99.8249 C265.6719,99.8959 265.5069,100.0819 265.2319,100.3789 C264.9559,100.6779 264.7499,100.8969 264.6139,101.0399 C263.2929,102.3989 262.0349,103.6549 260.8379,104.8069 C259.7059,105.9089 258.7429,106.8079 257.9489,107.5089 C257.5949,107.8059 257.2929,108.0909 257.0429,108.3629 C256.7929,108.6349 256.5819,108.9269 256.4069,109.2369 C256.2319,109.5489 256.0899,109.8269 255.9819,110.0729 C255.8739,110.3189 255.7829,110.6489 255.7069,111.0629 C255.6309,111.4779 255.5749,111.8379 255.5379,112.1409 C255.5009,112.4459 255.4539,112.8959 255.3949,113.4919 C255.4229,114.8389 255.8749,115.8619 256.7509,116.5609 C257.7829,117.3769 259.3919,117.7849 261.5809,117.7849 C262.9019,117.7849 264.1929,117.6749 265.4549,117.4549 C266.7159,117.2339 267.8709,116.9429 268.9179,116.5809 C269.9659,116.2179 270.9959,115.7669 272.0049,115.2309 C273.0149,114.6929 273.9229,114.1329 274.7299,113.5509 C275.5379,112.9679 276.3359,112.3159 277.1289,111.5969 C277.9209,110.8789 278.6159,110.1959 279.2099,109.5489 C279.8049,108.9009 280.4019,108.2009 281.0009,107.4499 C281.2009,107.2039 281.4259,107.0359 281.6799,106.9449 C281.9339,106.8539 282.1609,106.8419 282.3599,106.9059 C282.5579,106.9709 282.7279,107.0809 282.8669,107.2359 C283.0059,107.3909 283.0609,107.5899 283.0319,107.8289 C283.0029,108.0689 282.8939,108.3179 282.7069,108.5769 C282.0719,109.3669 281.4199,110.1219 280.7499,110.8399 C280.0809,111.5579 279.3059,112.3129 278.4259,113.1029 C277.5459,113.8929 276.6459,114.6149 275.7259,115.2689 C274.8059,115.9239 273.7789,116.5519 272.6429,117.1539 C271.5079,117.7559 270.3529,118.2639 269.1769,118.6789 C267.9999,119.0939 266.7169,119.4229 265.3269,119.6699 C263.9369,119.9159 262.5159,120.0389 261.0659,120.0389 C258.4229,120.0389 256.4269,119.5079 255.0779,118.4459 C253.7839,117.4219 253.1139,115.9589 253.0709,114.0539 C253.0309,112.3589 253.5359,110.2929 254.5839,107.8579 C254.6239,107.7409 254.6819,107.6319 254.7579,107.5279 C255.6219,105.5589 256.5989,103.7259 257.6859,102.0299 C257.7229,101.9779 257.7729,101.8999 257.8349,101.7979 C258.6209,100.6309 258.8909,99.9319 258.6459,99.6989 C258.4019,99.4659 257.2209,99.3879 255.1059,99.4659 C254.8019,99.4919 254.5629,99.4329 254.3879,99.2909 C254.2129,99.1489 254.1219,98.9669 254.1139,98.7469 C254.1069,98.5269 254.1409,98.3039 254.2179,98.0769 C254.2959,97.8499 254.4529,97.6519 254.6849,97.4839 C254.9169,97.3159 255.1779,97.2249 255.4649,97.2129 L258.1089,97.0379 C258.6919,97.0379 259.2209,96.9889 259.6969,96.8909 C260.1709,96.7949 260.5789,96.6719 260.9169,96.5219 C261.2549,96.3739 261.6009,96.1499 261.9549,95.8519 C262.3069,95.5539 262.6049,95.2729 262.8459,95.0079 C263.0889,94.7419 263.3989,94.3759 263.7779,93.9089 C264.8229,92.6789 265.8689,91.5329 266.9149,90.4709 C268.5019,88.8519 269.9229,87.5639 271.1789,86.6049 C271.7139,86.1899 272.1269,85.8869 272.4169,85.6919 C272.7079,85.4979 273.0649,85.3129 273.4869,85.1379 C273.9079,84.9639 274.3139,84.8759 274.7029,84.8759 C274.9739,84.8759 275.2319,84.9369 275.4759,85.0599" id="Fill-97"></path>
                <path d="M143.8021,134.6081 C142.9211,134.6081 141.5851,135.3091 139.5981,136.8121 C132.8111,141.4361 126.4321,146.4041 120.6521,151.5681 C114.8741,156.7311 109.6861,161.9881 105.2331,167.1931 C100.7011,172.5151 96.9291,177.7311 94.0191,182.6951 C91.0961,187.6771 89.1361,192.0981 88.1961,195.8361 C87.3021,199.4551 87.3511,202.2801 88.3431,204.2331 C89.3411,206.1591 91.2931,207.1331 94.1461,207.1331 C99.2131,207.1331 105.0981,203.5391 111.6361,196.4481 C117.9211,189.6271 124.4461,179.9941 131.0251,167.8181 C135.1931,160.1121 139.3901,151.1461 143.5011,141.1701 C144.8791,137.8521 145.2701,135.9901 144.7661,135.1291 C144.5701,134.7951 144.2401,134.6161 143.8131,134.6081 L143.8021,134.6081 Z M93.5721,209.6401 C91.7741,209.6401 90.2071,209.2941 88.9151,208.6091 C87.6321,207.9311 86.6491,206.9591 85.9921,205.7211 C84.7561,203.3311 84.6561,199.9921 85.6981,195.7971 C86.7171,191.7051 88.7561,187.0401 91.7591,181.9321 C94.7751,176.8031 98.6981,171.4031 103.4181,165.8811 C108.0681,160.4131 113.5041,154.9201 119.5771,149.5571 C125.6441,144.1991 132.3631,139.0301 139.5461,134.1951 C139.6201,134.1571 139.7261,134.0841 139.8641,133.9711 C140.7321,133.3981 141.4191,132.9391 141.8631,132.6391 C142.3071,132.3381 142.8991,131.9241 143.6341,131.3951 C144.3641,130.8711 144.9141,130.4551 145.2691,130.1581 C145.6031,129.8781 146.0391,129.5001 146.5791,129.0271 C147.1641,128.5111 147.5941,128.0661 147.8921,127.6661 C148.1521,127.3161 148.4681,126.8991 148.8441,126.4141 C149.2571,125.8781 149.5961,125.3281 149.8511,124.7771 C150.0871,124.2641 150.3311,123.6991 150.5811,123.0811 C150.8341,122.4541 151.0781,121.7741 151.3061,121.0621 C155.5441,108.9351 159.0321,80.9381 161.6681,69.4121 C161.7371,69.0471 161.9061,68.7691 162.2051,68.5271 C162.5231,68.2681 162.8411,68.1401 163.2071,68.1271 C163.5371,68.1271 163.7991,68.2521 163.9981,68.5091 C164.1991,68.7721 164.2561,69.0581 164.1751,69.4121 C161.8421,79.6141 158.7151,106.5131 154.8821,117.8081 C154.5551,118.7701 154.3041,119.5191 154.1281,120.0531 C153.9461,120.6091 153.7961,121.1851 153.6861,121.7681 C153.5671,122.3941 153.5311,122.8381 153.5741,123.1271 C153.6271,123.4731 153.8041,123.7601 154.0991,123.9791 C154.3141,124.1391 154.5801,124.2211 154.8911,124.2211 C155.0321,124.2211 155.1851,124.2041 155.3451,124.1691 C155.7201,124.0871 156.2291,123.9191 156.8571,123.6711 C157.4781,123.4271 158.1771,123.1041 158.9351,122.7111 C159.6781,122.3241 160.5911,121.8301 161.6731,121.2281 C173.8931,115.1321 186.6431,110.3881 199.5591,107.1341 C199.7031,107.0961 199.8381,107.0781 199.9621,107.0781 C200.1781,107.0781 200.3571,107.1371 200.5081,107.2581 C200.7711,107.4681 200.8971,107.7091 200.9071,108.0161 C200.9171,108.3241 200.8081,108.6311 200.5731,108.9591 C200.3561,109.2601 200.0651,109.4491 199.6541,109.5521 C185.9501,113.0051 172.4111,118.2031 159.4131,125.0021 C158.2271,125.6191 157.3291,126.0881 156.7221,126.4101 C156.1011,126.7371 155.3861,127.1571 154.5971,127.6581 C153.7761,128.1791 153.1931,128.5871 152.8121,128.9081 C152.4321,129.2251 151.9561,129.6901 151.3981,130.2901 C150.8081,130.9221 150.3791,131.4891 150.0891,132.0211 C149.8301,132.4941 149.4851,133.1571 149.0531,134.0081 C148.6181,134.8641 148.2311,135.7381 147.9001,136.6061 C147.5781,137.4491 147.1711,138.5331 146.6761,139.8561 C142.4051,150.3011 137.8901,159.9581 133.2581,168.5491 C126.5311,180.9711 119.8351,190.8371 113.3591,197.8731 C106.1731,205.6811 99.5161,209.6401 93.5721,209.6401 Z" id="Fill-99"></path>
                <path d="M100.2904,51.0524 C100.4194,51.4214 100.3384,51.7874 100.0484,52.1504 C98.6944,53.8214 98.2004,55.0764 98.5644,55.9184 C98.6974,56.2424 98.9694,56.5014 99.3784,56.6964 C99.7864,56.8904 100.2634,56.9874 100.8074,56.9874 C102.6454,56.9874 104.7534,56.5114 107.1274,55.5594 C109.5004,54.6084 111.4994,53.4704 113.1224,52.1504 C113.3774,51.9434 113.6304,51.8264 113.8834,51.8004 C114.1344,51.7754 114.3404,51.8234 114.5004,51.9464 C114.6594,52.0694 114.7794,52.2254 114.8594,52.4124 C114.9394,52.6004 114.9374,52.8214 114.8534,53.0734 C114.7704,53.3244 114.6034,53.5484 114.3524,53.7424 C112.4094,55.3234 110.1424,56.6344 107.5464,57.6774 C104.9504,58.7194 102.5324,59.2404 100.2924,59.2404 C99.3984,59.2404 98.6024,59.0694 97.9034,58.7264 C97.2044,58.3834 96.7024,57.8614 96.3954,57.1614 C96.2654,56.6564 95.9514,56.5864 95.4544,56.9484 C93.3014,58.7754 91.4084,59.6874 89.7764,59.6874 C88.9744,59.6874 88.3144,59.4424 87.7994,58.9494 C87.2834,58.4574 87.0284,57.8294 87.0354,57.0654 C87.0574,56.2884 87.3314,55.4714 87.8574,54.6164 C88.3834,53.7624 89.1314,52.9404 90.1024,52.1504 C90.3564,51.9434 90.6094,51.8264 90.8614,51.8004 C91.1134,51.7754 91.3194,51.8234 91.4784,51.9464 C91.6394,52.0694 91.7624,52.2254 91.8494,52.4124 C91.9354,52.6004 91.9334,52.8214 91.8434,53.0734 C91.7534,53.3244 91.5824,53.5484 91.3304,53.7424 C90.6304,54.3134 90.1264,54.8474 89.8174,55.3454 C89.5104,55.8444 89.3554,56.2624 89.3564,56.5994 C89.3434,56.8844 89.4084,57.0944 89.5524,57.2304 C89.6954,57.3654 89.9424,57.4344 90.2924,57.4344 C90.7584,57.4344 91.3334,57.2564 92.0174,56.9004 C92.7004,56.5434 93.4284,56.0414 94.1974,55.3944 C95.5144,54.2814 96.8954,52.8234 98.3444,51.0234 C98.6314,50.6734 98.9894,50.4924 99.4204,50.4794 L99.4594,50.4794 C99.8834,50.4924 100.1604,50.6834 100.2904,51.0524" id="Fill-101"></path>
                <path d="M131.306,32.6549 C131.211,32.7009 131.141,32.7369 131.097,32.7619 C131.052,32.7889 130.976,32.8379 130.869,32.9079 C130.762,32.9789 130.638,33.0659 130.498,33.1709 C129.354,34.0379 128.046,35.2289 126.573,36.7449 C126.54,36.7709 126.49,36.8219 126.42,36.8999 C123.57,39.7359 122.566,41.1539 123.408,41.1539 C123.536,41.1539 123.664,41.1379 123.787,41.1059 C123.912,41.0739 124.022,41.0449 124.119,41.0179 C124.215,40.9929 124.325,40.9409 124.446,40.8629 C124.567,40.7859 124.667,40.7269 124.748,40.6879 C124.827,40.6489 124.934,40.5689 125.066,40.4449 C125.198,40.3219 125.295,40.2349 125.359,40.1829 C125.422,40.1319 125.531,40.0239 125.685,39.8619 C125.838,39.7009 125.944,39.5909 126.003,39.5329 C126.062,39.4739 126.184,39.3479 126.371,39.1529 C126.558,38.9599 126.686,38.8229 126.756,38.7459 C128.558,36.6999 129.919,35.0229 130.84,33.7149 C130.972,33.5329 131.196,33.1509 131.51,32.5679 C131.468,32.5809 131.4,32.6099 131.306,32.6549 M120.745,44.3009 C120.187,44.3669 119.611,44.8449 119.018,45.7389 C118.622,46.3359 118.377,46.7569 118.283,47.0019 C118.129,47.4419 118.465,47.3059 119.288,46.5939 C119.918,45.9329 120.402,45.3799 120.737,44.9319 C121.073,44.4859 121.121,44.2699 120.886,44.2829 C120.847,44.2829 120.8,44.2889 120.745,44.3009 M133.638,29.9739 C133.882,30.0969 134.063,30.2689 134.181,30.4899 C134.367,30.8649 134.375,31.3379 134.206,31.9079 C133.997,32.5929 133.481,33.5199 132.658,34.6849 C131.894,35.7599 130.866,37.0549 129.575,38.5709 C129.202,39.0109 128.916,39.3509 128.719,39.5909 C128.522,39.8309 128.354,40.0699 128.214,40.3089 C128.076,40.5499 128.018,40.7179 128.041,40.8149 C128.064,40.9119 128.145,40.9959 128.285,41.0669 C128.423,41.1379 128.637,41.1679 128.925,41.1539 C129.212,41.1409 129.589,41.1089 130.054,41.0569 L133.367,40.8429 L133.425,40.8429 C133.79,40.8309 134.057,40.9539 134.225,41.2139 C134.392,41.4719 134.413,41.7729 134.29,42.1159 C134.166,42.4599 133.927,42.7279 133.572,42.9229 L131.507,44.0499 C131.119,44.2699 130.76,44.2989 130.428,44.1359 C130.096,43.9739 129.938,43.6929 129.952,43.2919 L127.429,43.4469 C127.074,43.4729 126.797,43.4919 126.6,43.5049 C126.403,43.5179 126.183,43.5479 125.939,43.5929 C125.696,43.6379 125.531,43.6639 125.445,43.6709 C125.36,43.6759 125.217,43.7319 125.019,43.8359 C124.821,43.9389 124.699,44.0039 124.654,44.0299 C124.609,44.0559 124.484,44.1629 124.28,44.3499 C124.075,44.5379 123.945,44.6679 123.89,44.7389 C123.834,44.8099 123.669,44.9949 123.394,45.2929 C123.118,45.5909 122.912,45.8109 122.777,45.9529 C121.455,47.3129 120.197,48.5689 119,49.7209 C117.868,50.8229 116.905,51.7219 116.11,52.4229 C115.757,52.7199 115.455,53.0049 115.205,53.2769 C114.955,53.5489 114.744,53.8409 114.569,54.1509 C114.394,54.4629 114.252,54.7399 114.144,54.9859 C114.036,55.2329 113.945,55.5629 113.869,55.9769 C113.794,56.3909 113.738,56.7509 113.701,57.0549 C113.663,57.3599 113.616,57.8099 113.557,58.4049 C113.585,59.7529 114.037,60.7759 114.914,61.4739 C115.945,62.2909 117.554,62.6989 119.743,62.6989 C121.064,62.6989 122.355,62.5889 123.617,62.3689 C124.878,62.1479 126.033,61.8569 127.08,61.4949 C128.128,61.1319 129.157,60.6809 130.167,60.1439 C131.177,59.6069 132.085,59.0469 132.892,58.4649 C133.699,57.8809 134.498,57.2299 135.291,56.5109 C136.083,55.7929 136.778,55.1089 137.372,54.4629 C137.967,53.8149 138.565,53.1149 139.163,52.3639 C139.362,52.1179 139.588,51.9499 139.842,51.8589 C140.096,51.7679 140.323,51.7549 140.522,51.8199 C140.72,51.8839 140.889,51.9949 141.029,52.1499 C141.168,52.3049 141.223,52.5029 141.195,52.7429 C141.165,52.9829 141.057,53.2319 140.868,53.4909 C140.234,54.2809 139.582,55.0349 138.913,55.7539 C138.243,56.4719 137.468,57.2269 136.588,58.0169 C135.708,58.8069 134.808,59.5289 133.888,60.1819 C132.968,60.8379 131.94,61.4659 130.805,62.0679 C129.67,62.6699 128.515,63.1769 127.338,63.5919 C126.162,64.0079 124.879,64.3369 123.489,64.5829 C122.099,64.8289 120.678,64.9529 119.228,64.9529 C116.586,64.9529 114.59,64.4209 113.24,63.3599 C111.946,62.3359 111.276,60.8729 111.233,58.9679 C111.193,57.2719 111.699,55.2069 112.747,52.7719 C112.786,52.6549 112.844,52.5459 112.919,52.4409 C113.785,50.4729 114.76,48.6399 115.848,46.9439 C115.885,46.8919 115.936,46.8139 115.998,46.7109 C116.783,45.5449 117.053,44.8449 116.808,44.6119 C116.564,44.3799 115.383,44.3009 113.268,44.3799 C112.963,44.4059 112.725,44.3469 112.55,44.2049 C112.375,44.0619 112.285,43.8809 112.276,43.6609 C112.268,43.4399 112.303,43.2169 112.381,42.9909 C112.458,42.7639 112.614,42.5659 112.847,42.3969 C113.079,42.2299 113.34,42.1379 113.627,42.1259 L116.271,41.9509 C116.854,41.9509 117.382,41.9019 117.858,41.8049 C118.333,41.7089 118.741,41.5859 119.079,41.4359 C119.417,41.2879 119.763,41.0639 120.117,40.7659 C120.469,40.4679 120.767,40.1859 121.009,39.9219 C121.25,39.6559 121.561,39.2899 121.94,38.8229 C122.985,37.5929 124.031,36.4469 125.077,35.3849 C126.664,33.7659 128.086,32.4769 129.341,31.5189 C129.876,31.1039 130.289,30.8009 130.579,30.6059 C130.869,30.4119 131.226,30.2269 131.649,30.0519 C132.071,29.8779 132.476,29.7899 132.865,29.7899 C133.137,29.7899 133.394,29.8509 133.638,29.9739" id="Fill-103"></path>
                <path d="M157.4154,32.6549 C157.3204,32.7009 157.2514,32.7369 157.2064,32.7619 C157.1614,32.7889 157.0854,32.8379 156.9784,32.9079 C156.8714,32.9789 156.7484,33.0659 156.6074,33.1709 C155.4644,34.0379 154.1544,35.2289 152.6824,36.7449 C152.6494,36.7709 152.5994,36.8219 152.5294,36.8999 C149.6794,39.7359 148.6754,41.1539 149.5174,41.1539 C149.6464,41.1539 149.7724,41.1379 149.8964,41.1059 C150.0214,41.0739 150.1314,41.0449 150.2284,41.0179 C150.3244,40.9929 150.4334,40.9409 150.5554,40.8629 C150.6764,40.7859 150.7764,40.7269 150.8574,40.6879 C150.9364,40.6489 151.0434,40.5689 151.1754,40.4449 C151.3074,40.3219 151.4044,40.2349 151.4684,40.1829 C151.5314,40.1319 151.6404,40.0239 151.7944,39.8619 C151.9474,39.7009 152.0544,39.5909 152.1124,39.5329 C152.1714,39.4739 152.2944,39.3479 152.4804,39.1529 C152.6674,38.9599 152.7964,38.8229 152.8654,38.7459 C154.6674,36.6999 156.0284,35.0229 156.9494,33.7149 C157.0814,33.5329 157.3054,33.1509 157.6204,32.5679 C157.5784,32.5809 157.5104,32.6099 157.4154,32.6549 M146.8544,44.3009 C146.2964,44.3669 145.7204,44.8449 145.1274,45.7389 C144.7314,46.3359 144.4864,46.7569 144.3914,47.0019 C144.2384,47.4419 144.5744,47.3059 145.3974,46.5939 C146.0284,45.9329 146.5114,45.3799 146.8464,44.9319 C147.1814,44.4859 147.2304,44.2699 146.9954,44.2829 C146.9564,44.2829 146.9094,44.2889 146.8544,44.3009 M159.7484,29.9739 C159.9914,30.0969 160.1724,30.2689 160.2904,30.4899 C160.4764,30.8649 160.4844,31.3379 160.3154,31.9079 C160.1064,32.5929 159.5914,33.5199 158.7684,34.6849 C158.0034,35.7599 156.9754,37.0549 155.6834,38.5709 C155.3114,39.0109 155.0254,39.3509 154.8284,39.5909 C154.6314,39.8309 154.4634,40.0699 154.3244,40.3089 C154.1854,40.5499 154.1274,40.7179 154.1504,40.8149 C154.1734,40.9119 154.2554,40.9959 154.3944,41.0669 C154.5324,41.1379 154.7464,41.1679 155.0344,41.1539 C155.3214,41.1409 155.6984,41.1089 156.1644,41.0569 L159.4774,40.8429 L159.5344,40.8429 C159.8994,40.8309 160.1674,40.9539 160.3344,41.2139 C160.5014,41.4719 160.5224,41.7729 160.3994,42.1159 C160.2754,42.4599 160.0364,42.7279 159.6814,42.9229 L157.6164,44.0499 C157.2284,44.2699 156.8694,44.2989 156.5384,44.1359 C156.2054,43.9739 156.0464,43.6929 156.0614,43.2919 L153.5384,43.4469 C153.1834,43.4729 152.9074,43.4919 152.7094,43.5049 C152.5124,43.5179 152.2914,43.5479 152.0484,43.5929 C151.8054,43.6379 151.6404,43.6639 151.5544,43.6709 C151.4694,43.6759 151.3264,43.7319 151.1284,43.8359 C150.9304,43.9389 150.8084,44.0039 150.7634,44.0299 C150.7184,44.0559 150.5934,44.1629 150.3894,44.3499 C150.1844,44.5379 150.0544,44.6679 149.9994,44.7389 C149.9434,44.8099 149.7784,44.9949 149.5034,45.2929 C149.2274,45.5909 149.0214,45.8109 148.8864,45.9529 C147.5644,47.3129 146.3064,48.5689 145.1094,49.7209 C143.9774,50.8229 143.0144,51.7219 142.2204,52.4229 C141.8664,52.7199 141.5644,53.0049 141.3144,53.2769 C141.0644,53.5489 140.8534,53.8409 140.6784,54.1509 C140.5034,54.4629 140.3614,54.7399 140.2534,54.9859 C140.1454,55.2329 140.0544,55.5629 139.9784,55.9769 C139.9034,56.3909 139.8474,56.7509 139.8104,57.0549 C139.7724,57.3599 139.7254,57.8099 139.6664,58.4049 C139.6944,59.7529 140.1464,60.7759 141.0234,61.4739 C142.0544,62.2909 143.6634,62.6989 145.8524,62.6989 C147.1744,62.6989 148.4654,62.5889 149.7274,62.3689 C150.9874,62.1479 152.1424,61.8569 153.1894,61.4949 C154.2374,61.1319 155.2674,60.6809 156.2764,60.1439 C157.2864,59.6069 158.1944,59.0469 159.0014,58.4649 C159.8094,57.8809 160.6074,57.2299 161.4004,56.5109 C162.1934,55.7929 162.8874,55.1089 163.4814,54.4629 C164.0764,53.8149 164.6734,53.1149 165.2724,52.3639 C165.4724,52.1179 165.6974,51.9499 165.9514,51.8589 C166.2054,51.7679 166.4324,51.7549 166.6314,51.8199 C166.8294,51.8839 166.9994,51.9949 167.1394,52.1499 C167.2774,52.3049 167.3324,52.5029 167.3044,52.7429 C167.2744,52.9829 167.1654,53.2319 166.9784,53.4909 C166.3434,54.2809 165.6914,55.0349 165.0224,55.7539 C164.3524,56.4719 163.5784,57.2269 162.6974,58.0169 C161.8174,58.8069 160.9174,59.5289 159.9974,60.1819 C159.0774,60.8379 158.0504,61.4659 156.9144,62.0679 C155.7794,62.6699 154.6244,63.1769 153.4484,63.5919 C152.2714,64.0079 150.9884,64.3369 149.5984,64.5829 C148.2084,64.8289 146.7874,64.9529 145.3374,64.9529 C142.6954,64.9529 140.6994,64.4209 139.3494,63.3599 C138.0554,62.3359 137.3864,60.8729 137.3424,58.9679 C137.3024,57.2719 137.8084,55.2069 138.8564,52.7719 C138.8954,52.6549 138.9534,52.5459 139.0284,52.4409 C139.8944,50.4729 140.8694,48.6399 141.9574,46.9439 C141.9944,46.8919 142.0454,46.8139 142.1074,46.7109 C142.8924,45.5449 143.1624,44.8449 142.9174,44.6119 C142.6734,44.3799 141.4934,44.3009 139.3774,44.3799 C139.0734,44.4059 138.8344,44.3469 138.6594,44.2049 C138.4844,44.0619 138.3944,43.8809 138.3864,43.6609 C138.3774,43.4399 138.4124,43.2169 138.4904,42.9909 C138.5674,42.7639 138.7234,42.5659 138.9564,42.3969 C139.1884,42.2299 139.4494,42.1379 139.7364,42.1259 L142.3804,41.9509 C142.9634,41.9509 143.4914,41.9019 143.9684,41.8049 C144.4424,41.7089 144.8504,41.5859 145.1884,41.4359 C145.5264,41.2879 145.8724,41.0639 146.2264,40.7659 C146.5784,40.4679 146.8764,40.1859 147.1184,39.9219 C147.3604,39.6559 147.6714,39.2899 148.0494,38.8229 C149.0944,37.5929 150.1404,36.4469 151.1864,35.3849 C152.7734,33.7659 154.1944,32.4769 155.4504,31.5189 C155.9854,31.1039 156.3984,30.8009 156.6884,30.6059 C156.9794,30.4119 157.3364,30.2269 157.7584,30.0519 C158.1804,29.8779 158.5854,29.7899 158.9744,29.7899 C159.2464,29.7899 159.5034,29.8509 159.7484,29.9739" id="Fill-105"></path>
                <path d="M169.6224,45.8083 C169.7614,45.8213 169.8974,45.8753 170.0314,45.9723 C170.1644,46.0703 170.2534,46.1903 170.2994,46.3313 C170.4204,46.7073 170.3354,47.2193 170.0454,47.8673 C169.7424,48.5663 169.3434,49.0383 168.8474,49.2863 C168.5704,49.4143 168.3194,49.4343 168.0954,49.3433 C167.9154,49.2793 167.7844,49.1423 167.7024,48.9353 C167.6274,48.7533 167.6064,48.5013 167.6434,48.1783 C167.6644,47.8543 167.7114,47.5373 167.7824,47.2253 C167.8154,47.0833 167.8824,46.9603 167.9834,46.8573 C167.9864,46.8443 167.9894,46.8303 167.9924,46.8183 C168.0394,46.6113 168.1574,46.4363 168.3464,46.2933 L168.4174,46.2353 C168.4754,46.2093 168.5524,46.1673 168.6504,46.1093 C168.7474,46.0503 168.8484,45.9953 168.9494,45.9443 C169.1624,45.8663 169.3534,45.8213 169.5244,45.8083 L169.6224,45.8083 Z M167.1904,52.1303 C167.3484,52.3513 167.3934,52.6103 167.3244,52.9083 C167.3014,53.0113 167.2644,53.1153 167.2154,53.2183 C166.7824,54.0863 166.4714,54.8993 166.2774,55.6573 C166.0854,56.4143 166.0324,57.0263 166.1204,57.4933 C166.2084,58.0103 166.4304,58.3893 166.7834,58.6283 C167.1374,58.8693 167.7464,58.9883 168.6144,58.9883 C170.0004,58.9883 171.4014,58.8073 172.8184,58.4443 C174.2344,58.0813 175.6034,57.5643 176.9234,56.8903 C178.2434,56.2163 179.4764,55.4973 180.6224,54.7343 C181.7684,53.9693 182.9434,53.1023 184.1504,52.1303 C184.4214,51.9113 184.7124,51.8003 185.0224,51.8003 C185.3334,51.8003 185.5734,51.9113 185.7434,52.1303 C185.9134,52.3513 185.9634,52.6163 185.8924,52.9273 C185.8204,53.2383 185.6494,53.5033 185.3794,53.7233 C184.3634,54.5393 183.3764,55.2873 182.4184,55.9673 C181.4594,56.6473 180.3864,57.3243 179.1954,57.9973 C178.0054,58.6713 176.8364,59.2383 175.6884,59.6973 C174.5404,60.1573 173.3104,60.5293 171.9944,60.8143 C170.6804,61.0993 169.3814,61.2423 168.0994,61.2423 C166.9074,61.2423 165.9374,60.9793 165.1904,60.4543 C164.4414,59.9303 163.9944,59.2283 163.8464,58.3473 C163.5614,56.8713 164.0044,54.9673 165.1724,52.6363 C165.2734,52.4153 165.4444,52.2213 165.6844,52.0523 C165.9234,51.8843 166.1604,51.7933 166.3964,51.7813 L166.4454,51.7813 L166.5134,51.7813 C166.8084,51.7933 167.0344,51.9113 167.1904,52.1303 Z" id="Fill-107"></path>
                <path d="M190.2806,33.442 C188.5566,34.323 186.9226,35.508 185.3776,36.998 C183.9336,38.382 182.6906,39.898 181.6466,41.543 C180.6046,43.188 179.9336,44.658 179.6376,45.953 C179.3026,47.417 179.1956,48.696 179.3146,49.79 C179.4336,50.884 179.8366,51.827 180.5236,52.616 C180.8876,53.004 181.2346,53.27 181.5656,53.413 C181.8946,53.555 182.2116,53.575 182.5136,53.47 C182.8156,53.368 183.0916,53.212 183.3396,53.004 C183.5876,52.797 183.8576,52.506 184.1506,52.13 C184.4056,51.923 184.6666,51.814 184.9356,51.8 C185.2036,51.788 185.4246,51.842 185.5966,51.965 C185.7696,52.088 185.8796,52.274 185.9266,52.519 C185.9736,52.765 185.9156,53.024 185.7496,53.296 C188.4696,50.175 190.6316,47.436 192.2326,45.079 C193.4846,43.227 194.5516,41.465 195.4326,39.795 C196.3126,38.124 196.9006,36.7 197.1966,35.521 C197.4916,34.342 197.4946,33.481 197.2046,32.937 C196.9266,32.393 196.2976,32.121 195.3126,32.121 C193.6806,32.121 192.0036,32.562 190.2806,33.442 M197.9686,30.315 C198.5686,30.613 199.0126,31.034 199.3026,31.577 C199.8216,32.536 199.8666,33.87 199.4366,35.579 C198.7596,38.259 196.9736,41.731 194.0836,45.992 C192.7556,47.948 191.2046,50.001 189.4306,52.15 C188.9506,52.72 188.5966,53.203 188.3706,53.597 C188.1446,53.992 188.0216,54.316 188.0036,54.569 C187.9836,54.822 188.1026,55.012 188.3576,55.142 C188.6126,55.271 188.9416,55.362 189.3436,55.414 C189.7476,55.465 190.2866,55.485 190.9636,55.471 C192.6726,55.471 194.6086,55.12 196.7706,54.414 C198.9336,53.708 200.9296,52.888 202.7626,51.956 C203.0386,51.827 203.2966,51.775 203.5366,51.8 C203.7756,51.827 203.9516,51.927 204.0596,52.101 C204.1686,52.276 204.2346,52.47 204.2576,52.684 C204.2786,52.898 204.2186,53.122 204.0746,53.355 C203.9306,53.588 203.7186,53.776 203.4406,53.918 C202.1666,54.565 200.8826,55.151 199.5906,55.676 C198.2986,56.201 196.8016,56.673 195.0986,57.094 C193.3966,57.515 191.8456,57.725 190.4476,57.725 C189.9286,57.725 189.3786,57.7 188.7946,57.647 C188.2106,57.596 187.7526,57.547 187.4206,57.503 C187.0866,57.457 186.7066,57.447 186.2806,57.472 C185.8536,57.499 185.4726,57.577 185.1386,57.707 C184.8046,57.836 184.4206,58.055 183.9876,58.367 C183.5526,58.677 183.0916,59.086 182.5996,59.59 C182.0686,60.044 181.5986,60.4 181.1906,60.659 C180.6016,61.021 180.0886,61.203 179.6466,61.203 C179.3106,61.203 179.0356,61.106 178.8206,60.912 C178.6066,60.717 178.4906,60.458 178.4736,60.134 C178.4776,59.837 178.4986,59.617 178.5376,59.473 C178.5766,59.332 178.6566,59.137 178.7776,58.891 C178.8976,58.593 179.0706,58.205 179.2976,57.725 C179.4636,57.337 179.5836,57.068 179.6566,56.92 C179.7286,56.771 179.7896,56.579 179.8356,56.346 C179.8826,56.113 179.9016,55.961 179.8916,55.89 C179.8826,55.818 179.8246,55.689 179.7176,55.502 C179.6126,55.313 179.5076,55.165 179.4026,55.054 C179.2986,54.945 179.1086,54.753 178.8346,54.481 C178.7486,54.403 178.6856,54.338 178.6456,54.288 C176.9696,52.383 176.5496,49.605 177.3846,45.953 C177.7606,44.308 178.5316,42.57 179.6946,40.737 C180.8586,38.904 182.2776,37.185 183.9536,35.579 C185.7436,33.87 187.6616,32.491 189.7086,31.441 C191.7556,30.392 193.7946,29.868 195.8276,29.868 C196.6566,29.868 197.3706,30.017 197.9686,30.315" id="Fill-109"></path>
                <path d="M205.8412,52.0426 C205.6122,52.1666 205.3672,52.3446 205.1072,52.5766 C204.4582,53.1466 203.8802,53.8336 203.3732,54.6366 C203.2142,54.9356 203.1062,55.1816 203.0492,55.3746 C202.7692,56.3726 203.7182,56.1586 205.8962,54.7336 C206.0232,54.6306 206.3612,54.3136 206.9092,53.7816 C206.7172,53.5486 206.6632,53.2706 206.7512,52.9466 C206.8462,52.5316 206.8582,52.2276 206.7852,52.0336 C206.7582,51.9816 206.7372,51.9456 206.7222,51.9276 C206.7072,51.9066 206.6692,51.8886 206.6102,51.8676 C206.5492,51.8496 206.4542,51.8396 206.3242,51.8396 C206.2312,51.8526 206.0702,51.9206 205.8412,52.0426 Z M206.8012,49.5856 C207.3312,49.5856 207.7902,49.7056 208.1762,49.9446 C208.5612,50.1856 208.8272,50.4926 208.9752,50.8676 C209.0092,50.9456 209.0172,51.0526 208.9982,51.1886 C208.9812,51.3236 208.9792,51.4186 208.9932,51.4696 C209.4882,51.1726 209.9152,51.1726 210.2752,51.4696 C210.6342,51.7686 210.6912,52.1696 210.4452,52.6746 C209.5892,54.3846 209.4152,55.6796 209.9272,56.5606 C210.1092,56.8966 210.3872,57.1516 210.7622,57.3266 C211.1362,57.5026 211.5362,57.5896 211.9642,57.5896 C212.5992,57.5896 213.2262,57.5336 213.8482,57.4246 C214.4682,57.3136 215.0292,57.1856 215.5292,57.0356 C216.0292,56.8876 216.5722,56.6636 217.1592,56.3656 C217.7452,56.0676 218.2342,55.8026 218.6232,55.5686 C219.0132,55.3356 219.4962,55.0096 220.0712,54.5886 C220.6472,54.1676 221.0892,53.8336 221.3992,53.5876 C221.7072,53.3426 222.1552,52.9796 222.7442,52.4996 C222.9362,52.3446 223.0782,52.2276 223.1742,52.1496 C223.4162,51.9426 223.6672,51.8226 223.9262,51.7906 C224.1862,51.7586 224.3952,51.8076 224.5542,51.9366 C224.7112,52.0656 224.8312,52.2256 224.9112,52.4126 C224.9912,52.6006 224.9882,52.8206 224.9052,53.0726 C224.8212,53.3246 224.6542,53.5486 224.4032,53.7426 C224.3222,53.8086 224.2122,53.8976 224.0692,54.0156 C223.4632,54.5076 222.9952,54.8866 222.6622,55.1506 C222.3292,55.4176 221.8372,55.7856 221.1862,56.2586 C220.5332,56.7316 219.9742,57.1066 219.5092,57.3856 C219.0442,57.6646 218.4612,57.9786 217.7592,58.3276 C217.0582,58.6776 216.4002,58.9496 215.7852,59.1446 C215.1712,59.3376 214.4862,59.5036 213.7302,59.6396 C212.9732,59.7746 212.2162,59.8436 211.4582,59.8436 C210.7002,59.8436 209.9982,59.6876 209.3512,59.3766 C208.7022,59.0656 208.1972,58.6006 207.8342,57.9786 C207.6192,57.6156 207.4432,57.3826 207.3052,57.2786 C207.1662,57.1756 206.9742,57.1686 206.7272,57.2596 C206.4792,57.3506 206.2062,57.4796 205.9082,57.6466 C205.6122,57.8166 205.1122,58.0146 204.4132,58.2406 C203.7142,58.4666 202.9292,58.6456 202.0582,58.7746 C201.3972,58.7746 200.9072,58.5666 200.5872,58.1526 C200.3082,57.7906 200.2032,57.3116 200.2752,56.7156 C200.3622,55.8866 200.7662,54.9086 201.4892,53.7816 C202.1572,52.7326 202.9212,51.8266 203.7822,51.0626 C204.8692,50.1036 205.8622,49.6116 206.7622,49.5856 L206.8012,49.5856 Z" id="Fill-111"></path>
                <path d="M29.7465,51.2399 C29.4805,51.2399 29.1435,51.2679 28.7445,51.3229 C28.3295,51.3809 27.9175,51.4529 27.5085,51.5369 C27.1205,51.6179 26.5625,51.7389 25.8365,51.9009 C25.1205,52.0609 24.4995,52.1969 23.9715,52.3119 C19.0465,53.8259 14.7195,55.3289 11.0925,56.7829 C9.0595,57.5819 7.1995,58.4269 5.5645,59.2959 L2.2115,61.0769 L5.7115,61.1569 C5.7455,61.1579 5.7815,61.1629 5.8205,61.1689 C5.9325,61.1889 6.0645,61.2019 6.1875,61.2059 C6.5165,61.2269 6.9025,61.2429 7.3105,61.2519 C7.5945,61.2579 7.8875,61.2609 8.1915,61.2609 C10.6745,61.2609 13.8755,61.0469 17.7075,60.6239 C19.0325,60.4749 20.3485,60.2769 21.6175,60.0319 C22.8805,59.7879 24.1685,59.4609 25.4475,59.0599 C26.7975,58.6379 27.9695,58.0929 28.9345,57.4369 C29.9595,56.7409 32.2085,52.2029 31.8855,51.1069 C31.8245,50.9009 31.6755,50.7799 31.4765,50.7749 C31.4185,50.7829 29.8225,51.2329 29.7685,51.2479 L29.7465,51.2399 Z M2.5875,131.5669 C2.1395,131.5669 1.8265,131.4349 1.6335,131.1619 C0.9895,130.2609 1.7455,128.0659 2.0685,127.1289 C2.2015,126.7409 2.2485,126.6069 2.2345,126.5159 C2.4945,125.6059 7.1915,113.7599 12.1595,101.2289 C18.7425,84.6299 25.5495,67.4639 25.6875,66.5839 C25.8575,65.5039 26.4495,64.5389 26.9255,63.7639 C27.3515,63.0679 27.6355,62.6079 27.5095,62.2569 C27.4575,62.1119 27.3445,62.0089 27.1735,61.9489 C27.1075,61.9259 27.0195,61.9149 26.8965,61.9149 C26.3895,61.9149 25.2825,62.0999 24.2115,62.2799 C23.2915,62.4329 22.3395,62.5939 21.9805,62.5939 L21.6635,62.5899 C20.5225,62.5899 19.0485,62.7229 17.2805,62.9869 C13.2075,63.4289 9.8115,63.6549 7.1975,63.6549 C6.8765,63.6549 6.5665,63.6509 6.2685,63.6439 C5.9705,63.6369 5.6825,63.6289 5.4065,63.6139 C3.9035,63.5099 2.7415,63.3069 1.9555,63.0149 C1.5115,62.8369 1.1425,62.5899 0.8965,62.3019 C0.5595,61.8819 0.4625,61.4019 0.6035,60.8399 C0.7565,60.2329 1.1915,59.6389 1.9345,59.0239 C2.4475,58.6049 3.1445,58.1429 4.0105,57.6519 C5.6255,56.7689 7.8795,55.7479 10.7075,54.6189 C14.7935,52.9669 19.6895,51.2789 25.2655,49.6029 C27.0375,49.0759 33.4485,45.7759 34.6485,44.9239 C35.8445,44.0769 46.8505,14.9259 48.1005,11.6039 C48.2165,11.3549 48.4075,11.1369 48.6805,10.9539 C48.9555,10.7679 49.2285,10.6749 49.5175,10.6669 C49.8695,10.6749 50.0805,10.7699 50.2445,10.9959 C50.4255,11.2429 50.4685,11.5029 50.3855,11.8369 C48.9165,17.6829 46.1325,25.5519 42.1095,35.2209 C40.5845,38.7459 39.0575,43.2639 39.7785,44.3889 C39.8935,44.5689 40.0625,44.6669 40.2695,44.6719 C40.9285,44.6719 47.5255,44.0599 51.1805,43.1119 C51.4085,43.0849 51.6835,43.0259 51.8835,42.9689 C64.5475,40.4809 75.8535,39.2179 85.4735,39.2179 C86.2765,39.2179 87.0675,39.2259 87.8485,39.2439 C88.3835,39.2559 88.5145,39.4749 88.5695,39.5699 C88.7285,39.8369 88.7665,40.1039 88.6885,40.4129 C88.6085,40.7309 88.4205,41.0179 88.1145,41.2879 C87.9415,41.4419 87.6815,41.6179 87.2025,41.6179 C86.3905,41.5989 85.6065,41.5919 84.8145,41.5919 C73.3615,41.5919 59.5535,43.4109 43.7695,46.9989 L41.7915,47.4699 C41.3485,47.5779 40.7955,47.7279 40.1375,47.9219 C39.4155,48.1359 38.8705,48.3399 38.4715,48.5439 C38.0945,48.7359 37.6695,48.9849 37.2085,49.2829 C36.7075,49.6069 33.5675,55.7689 33.9495,57.1629 C34.0105,57.3849 34.1635,57.5159 34.3695,57.5249 L35.9715,57.4249 L36.1355,57.4269 C36.8905,57.4269 37.8785,57.3269 39.1565,57.1189 C39.9755,57.0459 40.6725,56.9689 41.1765,56.9049 C45.6005,56.0389 50.0195,55.0849 54.3265,54.0689 C69.5215,50.4979 82.2535,46.5679 92.1675,42.3869 C97.6485,40.0859 102.0295,37.7769 105.1885,35.5269 C108.4515,33.1869 110.2895,31.0469 110.8075,28.9849 C111.4885,26.2699 111.1515,23.3649 109.8055,20.3489 C108.4885,17.3989 106.1975,14.6409 102.9975,12.1519 C99.4675,9.4709 94.9465,7.2729 89.5605,5.6169 C84.1845,3.9639 77.9325,3.0469 70.9785,2.8889 C70.1155,2.8699 69.2485,2.8599 68.3795,2.8599 C63.7695,2.8599 59.0615,3.1359 54.3865,3.6799 C48.8165,4.3299 43.6115,5.2349 38.9135,6.3709 C34.5025,7.4459 30.8615,8.6129 28.0895,9.8399 C26.8205,10.4269 25.8655,10.9639 25.1685,11.4779 C25.0025,11.5799 24.8405,11.7129 24.7015,11.8639 L24.2135,12.3939 L24.4435,12.9599 C24.4995,13.0949 24.5845,13.2429 24.6965,13.3959 C25.1395,13.9659 25.8085,14.4749 26.7485,14.9579 C28.6425,15.9679 30.7925,16.5079 33.1375,16.5609 C33.2585,16.5629 33.7955,16.5639 33.7955,16.5639 C34.0835,16.5709 34.2935,16.6379 34.4335,16.7699 C34.5845,16.9119 34.6485,17.0579 34.6455,17.2459 C34.6415,17.5429 34.5775,17.8329 34.4495,18.1319 C34.3625,18.3339 34.2085,18.5049 33.9635,18.6689 C33.7035,18.8439 33.4125,18.9329 33.0745,18.9399 L32.8795,18.9419 C32.7325,18.9419 32.5825,18.9389 32.4345,18.9349 C29.7625,18.8759 27.3075,18.2609 25.1375,17.1069 C24.0415,16.5279 23.2015,15.8749 22.6425,15.1659 C21.9255,14.2629 21.6985,13.3409 21.9485,12.3439 C22.1725,11.4539 22.8325,10.6049 23.9675,9.7489 C24.8695,9.0779 26.0825,8.4049 27.5685,7.7499 C30.5065,6.4109 34.3205,5.1709 38.9095,4.0609 C43.7635,2.8989 49.0925,1.9759 54.7465,1.3179 C59.4785,0.7659 64.2665,0.4869 68.9775,0.4869 C69.8765,0.4869 70.7715,0.4969 71.6665,0.5169 C78.8425,0.6779 85.3055,1.6289 90.8735,3.3419 C96.4235,5.0519 101.1035,7.3469 104.7855,10.1659 C108.2695,12.8329 110.7795,15.8569 112.2455,19.1549 C113.6845,22.3889 113.9975,25.6849 113.1785,28.9489 C112.4825,31.7179 110.1705,34.5239 106.3075,37.2909 C102.9395,39.6979 98.3395,42.1349 92.6335,44.5329 C82.5425,48.7779 69.6345,52.7619 54.2675,56.3759 C50.6505,57.2239 46.9695,58.0309 43.3245,58.7729 C41.6415,59.1239 40.1915,59.4679 39.0165,59.7969 C37.7815,60.1399 36.5745,60.5829 35.4285,61.1119 C34.9225,61.3459 34.5005,61.3959 34.0925,61.4439 C33.5905,61.5039 33.1155,61.5589 32.6175,61.9559 C32.4345,62.1019 32.2895,62.2059 32.1685,62.2939 C31.7005,62.6309 31.5455,62.7689 31.0755,63.6999 C30.5165,64.8059 27.6315,71.2849 27.0265,72.9529 C26.3505,74.6649 25.1585,77.6939 23.6855,81.4379 C18.2055,95.3749 8.0535,121.1869 7.3895,122.4259 L7.3565,122.4689 C7.2935,122.5609 7.3055,122.6269 7.3855,123.0559 C7.5955,124.1849 8.2345,127.6229 6.6075,129.7469 C5.7935,130.8109 4.5085,131.4209 2.7875,131.5589 C2.7175,131.5649 2.6505,131.5669 2.5875,131.5669 Z" id="Fill-113"></path>
            </g>
            <text id="7.7.18-copy" font-family="HiraMinProN-W3, Hiragino Mincho ProN" font-size="20" font-weight="300">
                <tspan x="490" y="372">7.7.18</tspan>
            </text>
        </g>
    </g>
</svg>
